<?xml version="1.0" standalone="yes"?>

<svg version="1.1" viewBox="0.0 0.0 247.0 48.0" fill="none" stroke="none" stroke-linecap="square" stroke-miterlimit="10" xmlns="http://www.w3.org/2000/svg" xmlns:xlink="http://www.w3.org/1999/xlink"><clipPath id="p.0"><path d="m0 0l247.0 0l0 48.0l-247.0 0l0 -48.0z" clip-rule="nonzero"></path></clipPath><g clip-path="url(#p.0)"><path fill="#000000" fill-opacity="0.0" d="m0 0l247.05249 0l0 48.0l-247.05249 0z" fill-rule="nonzero"></path><path fill="#000000" fill-opacity="0.0" d="m0 0l251.08661 0l0 17.66929l-251.08661 0z" fill-rule="nonzero"></path><path fill="#1e1f1d" d="m15.671875 30.037415q1.0 0 1.75 -0.34375q0.75 -0.359375 1.171875 -0.984375q0.421875 -0.625 0.625 -1.375q0.203125 -0.765625 0.203125 -1.671875l0 -0.953125q0 -0.9375 -0.21875 -1.71875q-0.203125 -0.796875 -0.640625 -1.421875q-0.4375 -0.625 -1.171875 -0.96875q-0.734375 -0.359375 -1.703125 -0.359375q-0.8125 0 -1.484375 0.3125q-0.65625 0.296875 -1.09375 0.796875q-0.421875 0.484375 -0.71875 1.15625q-0.296875 0.65625 -0.421875 1.34375q-0.125 0.671875 -0.125 1.359375q0 0.6875 0.140625 1.359375q0.140625 0.65625 0.4375 1.296875q0.3125 0.625 0.734375 1.109375q0.4375 0.46875 1.078125 0.765625q0.65625 0.296875 1.4375 0.296875zm-3.015625 7.5625l-0.171875 -1.78125l2.390625 0q1.0 0 1.734375 -0.140625q0.734375 -0.140625 1.21875 -0.46875q0.5 -0.3125 0.796875 -0.703125q0.3125 -0.390625 0.46875 -1.015625q0.15625 -0.625 0.203125 -1.25q0.0625 -0.609375 0.0625 -1.5l0 -1.140625q-0.703125 1.0 -1.625 1.546875q-0.921875 0.546875 -2.359375 0.546875q-1.09375 0 -2.03125 -0.375q-0.9375 -0.390625 -1.578125 -1.015625q-0.625 -0.640625 -1.078125 -1.46875q-0.453125 -0.828125 -0.65625 -1.71875q-0.203125 -0.890625 -0.203125 -1.796875q0 -1.40625 0.34375 -2.59375q0.34375 -1.203125 1.015625 -2.140625q0.6875 -0.9375 1.796875 -1.46875q1.109375 -0.53125 2.53125 -0.53125q1.265625 0 2.203125 0.484375q0.953125 0.484375 1.703125 1.5l0 -1.71875l1.90625 0l0 11.9375q0 0.8125 -0.046875 1.421875q-0.03125 0.625 -0.1875 1.375q-0.15625 0.75 -0.4375 1.28125q-0.265625 0.546875 -0.75 1.09375q-0.484375 0.546875 -1.15625 0.875q-0.671875 0.34375 -1.671875 0.546875q-1.0 0.21875 -2.25 0.21875l-2.171875 0zm14.128906 -18.75l0 14.484375q0 1.25 -0.171875 2.0q-0.15625 0.765625 -0.59375 1.296875q-0.4375 0.546875 -1.1875 0.75q-0.75 0.21875 -1.953125 0.21875l-0.609375 0l-0.265625 -1.78125l0.609375 0q0.46875 0 0.796875 -0.046875q0.328125 -0.046875 0.5625 -0.140625q0.25 -0.078125 0.40625 -0.265625q0.15625 -0.1875 0.234375 -0.359375q0.09375 -0.171875 0.125 -0.515625q0.046875 -0.328125 0.0625 -0.609375q0.015625 -0.265625 0.015625 -0.75l0 -14.28125l1.96875 0zm0 -4.671875l0 2.3125l-1.96875 0l0 -2.3125l1.96875 0zm11.292969 17.53125l-8.984375 0l0 -1.484375l6.578125 -9.828125l-6.390625 0l0 -1.546875l8.578125 0l0 1.546875l-6.5625 9.765625l6.78125 0l0 1.546875zm0.765625 -12.859375l2.078125 0l4.0625 10.703125l3.609375 -10.703125l2.0625 0q-5.203125 14.328125 -5.375 14.765625q-0.8125 2.03125 -1.96875 2.96875q-1.140625 0.953125 -3.015625 0.953125q-0.5625 0 -1.171875 -0.09375l-0.125 -1.671875q0.65625 0.046875 0.984375 0.046875q1.328125 0 2.015625 -0.484375q0.6875 -0.484375 1.21875 -1.8125q0.484375 -1.234375 0.71875 -1.90625l-5.09375 -12.765625zm13.6171875 12.859375l0 -12.859375l1.640625 0l0.25 1.84375q0.765625 -0.953125 1.90625 -1.53125q1.140625 -0.578125 2.46875 -0.578125q2.21875 0 3.28125 1.25q1.078125 1.25 1.078125 3.828125l0 8.046875l-1.953125 0q0 -7.734375 -0.015625 -8.28125q-0.046875 -1.640625 -0.671875 -2.40625q-0.609375 -0.765625 -2.046875 -0.765625q-1.515625 0 -2.53125 0.734375q-1.0 0.71875 -1.296875 1.875q-0.125 0.796875 -0.125 1.8125l0 7.03125l-1.984375 0zm18.890625 -1.421875q1.9375 0 2.875 -1.234375q0.953125 -1.25 0.953125 -3.5625q0 -2.59375 -0.90625 -3.90625q-0.90625 -1.328125 -2.9375 -1.328125q-0.90625 0 -1.59375 0.390625q-0.6875 0.390625 -1.109375 1.078125q-0.421875 0.6875 -0.640625 1.59375q-0.21875 0.890625 -0.21875 1.953125q0 1.5 0.359375 2.609375q0.375 1.09375 1.1875 1.75q0.828125 0.65625 2.03125 0.65625zm3.859375 -0.4375q-0.625 0.96875 -1.6875 1.546875q-1.046875 0.578125 -2.359375 0.578125q-2.53125 0 -3.984375 -1.8125q-1.4375 -1.8125 -1.4375 -4.9375q0 -2.96875 1.46875 -4.796875q1.46875 -1.84375 3.921875 -1.84375q1.28125 0 2.40625 0.5625q1.140625 0.546875 1.703125 1.484375l-0.046875 -1.109375l0 -5.65625l1.9375 -0.125l0 17.96875l-1.65625 0l-0.265625 -1.859375zm9.035156 0.546875q1.390625 0 2.453125 -0.765625q1.0625 -0.765625 1.375 -2.078125l0 -2.15625q-0.0625 0 -0.71875 0.0625q-0.640625 0.046875 -0.84375 0.0625q-2.546875 0.21875 -3.546875 0.828125q-1.0 0.609375 -1.0 1.953125q0 1.03125 0.609375 1.5625q0.609375 0.53125 1.671875 0.53125zm4.25 1.3125q-0.171875 -0.75 -0.328125 -1.625q-1.078125 1.078125 -2.015625 1.484375q-0.9375 0.40625 -2.203125 0.40625q-1.796875 0 -2.890625 -0.9375q-1.09375 -0.953125 -1.09375 -2.71875q0 -1.96875 1.484375 -2.90625q1.5 -0.953125 4.3125 -1.1875q0.390625 -0.046875 1.15625 -0.109375q0.78125 -0.0625 1.171875 -0.09375l0 -1.140625q0 -1.359375 -0.640625 -2.015625q-0.625 -0.65625 -1.984375 -0.65625q-1.890625 0 -3.828125 0.9375q-0.0625 -0.140625 -0.3125 -0.8125q-0.234375 -0.671875 -0.25 -0.703125q0.859375 -0.46875 2.03125 -0.75q1.171875 -0.296875 2.390625 -0.296875q2.40625 0 3.46875 1.046875q1.0625 1.046875 1.0625 3.5625l0 8.515625l-1.53125 0zm23.179688 -9.1875q0 1.375 -0.421875 2.5625q-0.40625 1.171875 -1.09375 1.953125q-0.6875 0.765625 -1.5625 1.203125q-0.859375 0.4375 -1.75 0.4375q-0.953125 0 -1.59375 -0.53125q-0.625 -0.53125 -0.75 -1.484375q-0.53125 0.75 -1.328125 1.328125q-0.796875 0.578125 -1.8125 0.578125q-1.53125 0 -2.4375 -1.09375q-0.890625 -1.09375 -0.890625 -2.984375q0 -2.421875 1.296875 -4.03125q1.3125 -1.625 3.59375 -1.625q1.671875 0 3.5625 0.640625q-0.078125 0.578125 -0.25 1.6875q-0.171875 1.109375 -0.265625 1.75q-0.078125 0.625 -0.171875 1.40625q-0.078125 0.765625 -0.078125 1.265625q0 1.65625 1.3125 1.65625q1.171875 0 2.140625 -1.40625q0.96875 -1.421875 0.96875 -3.390625q0 -3.109375 -2.0625 -4.9375q-2.046875 -1.828125 -5.3125 -1.828125q-2.359375 0 -4.234375 1.09375q-1.859375 1.078125 -2.90625 3.0q-1.03125 1.921875 -1.03125 4.328125q0 3.59375 2.046875 5.640625q2.046875 2.03125 5.46875 2.03125q2.90625 0 5.21875 -1.328125l0.40625 1.296875q-2.21875 1.5 -5.640625 1.5q-4.109375 0 -6.59375 -2.4375q-2.484375 -2.453125 -2.484375 -6.65625q0 -2.078125 0.734375 -3.921875q0.734375 -1.84375 2.015625 -3.15625q1.28125 -1.328125 3.125 -2.078125q1.84375 -0.765625 3.96875 -0.765625q2.515625 0 4.5 1.015625q2.0 1.0 3.15625 2.90625q1.15625 1.890625 1.15625 4.375zm-11.984375 2.046875q0 1.15625 0.46875 1.828125q0.484375 0.671875 1.421875 0.671875q1.234375 0 1.875 -1.015625q0.65625 -1.03125 0.890625 -2.90625q0.109375 -0.828125 0.296875 -2.671875q-0.65625 -0.234375 -1.703125 -0.234375q-1.078125 0 -1.828125 0.609375q-0.734375 0.59375 -1.078125 1.546875q-0.34375 0.953125 -0.34375 2.171875zm17.273438 -5.71875l0 12.859375l-1.96875 0l0 -12.859375l1.96875 0zm0 -4.671875l0 2.3125l-1.96875 0l0 -2.3125l1.96875 0zm3.6757812 17.53125l0 -12.859375l1.640625 0l0.25 1.84375q0.765625 -0.953125 1.90625 -1.53125q1.140625 -0.578125 2.46875 -0.578125q2.21875 0 3.28125 1.25q1.078125 1.25 1.078125 3.828125l0 8.046875l-1.953125 0q0 -7.734375 -0.015625 -8.28125q-0.046875 -1.640625 -0.671875 -2.40625q-0.609375 -0.765625 -2.046875 -0.765625q-1.515625 0 -2.53125 0.734375q-1.0 0.71875 -1.296875 1.875q-0.125 0.796875 -0.125 1.8125l0 7.03125l-1.984375 0zm18.890625 -1.421875q1.9375 0 2.875 -1.234375q0.953125 -1.25 0.953125 -3.5625q0 -2.59375 -0.90625 -3.90625q-0.90625 -1.328125 -2.9375 -1.328125q-0.90625 0 -1.59375 0.390625q-0.6875 0.390625 -1.109375 1.078125q-0.421875 0.6875 -0.640625 1.59375q-0.21875 0.890625 -0.21875 1.953125q0 1.5 0.359375 2.609375q0.375 1.09375 1.1875 1.75q0.828125 0.65625 2.03125 0.65625zm3.859375 -0.4375q-0.625 0.96875 -1.6875 1.546875q-1.046875 0.578125 -2.359375 0.578125q-2.53125 0 -3.984375 -1.8125q-1.4375 -1.8125 -1.4375 -4.9375q0 -2.96875 1.46875 -4.796875q1.46875 -1.84375 3.921875 -1.84375q1.28125 0 2.40625 0.5625q1.140625 0.546875 1.703125 1.484375l-0.046875 -1.109375l0 -5.65625l1.9375 -0.125l0 17.96875l-1.65625 0l-0.265625 -1.859375zm7.6289062 -11.0l0 12.859375l-1.96875 0l0 -12.859375l1.96875 0zm0 -4.671875l0 2.3125l-1.96875 0l0 -2.3125l1.96875 0zm7.3945312 16.21875q1.390625 0 2.453125 -0.765625q1.0625 -0.765625 1.375 -2.078125l0 -2.15625q-0.0625 0 -0.71875 0.0625q-0.640625 0.046875 -0.84375 0.0625q-2.546875 0.21875 -3.546875 0.828125q-1.0 0.609375 -1.0 1.953125q0 1.03125 0.609375 1.5625q0.609375 0.53125 1.671875 0.53125zm4.25 1.3125q-0.171875 -0.75 -0.328125 -1.625q-1.078125 1.078125 -2.015625 1.484375q-0.9375 0.40625 -2.203125 0.40625q-1.796875 0 -2.890625 -0.9375q-1.09375 -0.953125 -1.09375 -2.71875q0 -1.96875 1.484375 -2.90625q1.5 -0.953125 4.3125 -1.1875q0.390625 -0.046875 1.15625 -0.109375q0.78125 -0.0625 1.171875 -0.09375l0 -1.140625q0 -1.359375 -0.640625 -2.015625q-0.625 -0.65625 -1.984375 -0.65625q-1.890625 0 -3.828125 0.9375q-0.0625 -0.140625 -0.3125 -0.8125q-0.234375 -0.671875 -0.25 -0.703125q0.859375 -0.46875 2.03125 -0.75q1.171875 -0.296875 2.390625 -0.296875q2.40625 0 3.46875 1.046875q1.0625 1.046875 1.0625 3.5625l0 8.515625l-1.53125 0zm4.8984375 0l0 -12.859375l1.640625 0l0.25 1.84375q0.765625 -0.953125 1.90625 -1.53125q1.140625 -0.578125 2.46875 -0.578125q2.21875 0 3.28125 1.25q1.078125 1.25 1.078125 3.828125l0 8.046875l-1.953125 0q0 -7.734375 -0.015625 -8.28125q-0.046875 -1.640625 -0.671875 -2.40625q-0.609375 -0.765625 -2.046875 -0.765625q-1.515625 0 -2.53125 0.734375q-1.0 0.71875 -1.296875 1.875q-0.125 0.796875 -0.125 1.8125l0 7.03125l-1.984375 0zm17.59375 -1.3125q1.390625 0 2.453125 -0.765625q1.0625 -0.765625 1.375 -2.078125l0 -2.15625q-0.0625 0 -0.71875 0.0625q-0.640625 0.046875 -0.84375 0.0625q-2.546875 0.21875 -3.546875 0.828125q-1.0 0.609375 -1.0 1.953125q0 1.03125 0.609375 1.5625q0.609375 0.53125 1.671875 0.53125zm4.25 1.3125q-0.171875 -0.75 -0.328125 -1.625q-1.078125 1.078125 -2.015625 1.484375q-0.9375 0.40625 -2.203125 0.40625q-1.796875 0 -2.890625 -0.9375q-1.09375 -0.953125 -1.09375 -2.71875q0 -1.96875 1.484375 -2.90625q1.5 -0.953125 4.3125 -1.1875q0.390625 -0.046875 1.15625 -0.109375q0.78125 -0.0625 1.171875 -0.09375l0 -1.140625q0 -1.359375 -0.640625 -2.015625q-0.625 -0.65625 -1.984375 -0.65625q-1.890625 0 -3.828125 0.9375q-0.0625 -0.140625 -0.3125 -0.8125q-0.234375 -0.671875 -0.25 -0.703125q0.859375 -0.46875 2.03125 -0.75q1.171875 -0.296875 2.390625 -0.296875q2.40625 0 3.46875 1.046875q1.0625 1.046875 1.0625 3.5625l0 8.515625l-1.53125 0zm6.2890625 0.140625q-0.734375 0 -1.15625 -0.453125q-0.40625 -0.46875 -0.40625 -1.09375q0 -0.640625 0.40625 -1.09375q0.421875 -0.453125 1.15625 -0.453125q0.734375 0 1.140625 0.453125q0.421875 0.453125 0.421875 1.09375q0 0.625 -0.421875 1.09375q-0.40625 0.453125 -1.140625 0.453125zm11.8203125 -10.625q-0.859375 -1.03125 -2.359375 -1.03125q-1.5 0 -2.453125 1.0625q-0.953125 1.0625 -1.109375 2.90625l6.78125 0q0 -1.90625 -0.859375 -2.9375zm-1.984375 10.75q-2.796875 0 -4.40625 -1.78125q-1.609375 -1.78125 -1.609375 -4.875q0 -2.984375 1.546875 -4.84375q1.5625 -1.859375 4.109375 -1.890625q2.390625 0 3.78125 1.640625q1.40625 1.625 1.40625 4.359375q0 0.140625 0 0.515625q0 0.375 0 0.53125l-8.828125 0q0.03125 2.203125 1.125 3.421875q1.09375 1.21875 2.953125 1.21875q2.03125 0 4.09375 -1.078125l0.296875 1.59375q-1.953125 1.1875 -4.46875 1.1875zm12.5625 -1.6875q1.9375 0 2.875 -1.234375q0.953125 -1.25 0.953125 -3.5625q0 -2.59375 -0.90625 -3.90625q-0.90625 -1.328125 -2.9375 -1.328125q-0.90625 0 -1.59375 0.390625q-0.6875 0.390625 -1.109375 1.078125q-0.421875 0.6875 -0.640625 1.59375q-0.21875 0.890625 -0.21875 1.953125q0 1.5 0.359375 2.609375q0.375 1.09375 1.1875 1.75q0.828125 0.65625 2.03125 0.65625zm3.859375 -0.4375q-0.625 0.96875 -1.6875 1.546875q-1.046875 0.578125 -2.359375 0.578125q-2.53125 0 -3.984375 -1.8125q-1.4375 -1.8125 -1.4375 -4.9375q0 -2.96875 1.46875 -4.796875q1.46875 -1.84375 3.921875 -1.84375q1.28125 0 2.40625 0.5625q1.140625 0.546875 1.703125 1.484375l-0.046875 -1.109375l0 -5.65625l1.9375 -0.125l0 17.96875l-1.65625 0l-0.265625 -1.859375zm4.8789062 -2.4375l0 -8.5625l1.96875 0l0 8.59375q0 0.84375 0.234375 1.4375q0.25 0.578125 0.6875 0.90625q0.453125 0.3125 1.015625 0.453125q0.578125 0.140625 1.3125 0.140625q1.53125 0 2.375 -0.65625q0.859375 -0.671875 0.859375 -2.28125l0 -8.59375l1.96875 0l0 8.5625q0 0.984375 -0.28125 1.78125q-0.28125 0.78125 -0.765625 1.3125q-0.46875 0.515625 -1.140625 0.859375q-0.671875 0.328125 -1.421875 0.484375q-0.734375 0.15625 -1.59375 0.15625q-0.84375 0 -1.59375 -0.15625q-0.75 -0.15625 -1.421875 -0.5q-0.671875 -0.34375 -1.15625 -0.859375q-0.484375 -0.53125 -0.765625 -1.3125q-0.28125 -0.78125 -0.28125 -1.765625z" fill-rule="nonzero"></path></g></svg>

