<?xml version="1.0" standalone="yes"?>

<svg version="1.1" viewBox="0.0 0.0 99.0 249.0" fill="none" stroke="none" stroke-linecap="square" stroke-miterlimit="10" xmlns="http://www.w3.org/2000/svg" xmlns:xlink="http://www.w3.org/1999/xlink"><clipPath id="p.0"><path d="m0 0l99.0 0l0 249.0l-99.0 0l0 -249.0z" clip-rule="nonzero"></path></clipPath><g clip-path="url(#p.0)"><path fill="#000000" fill-opacity="0.0" d="m0 0l99.874016 0l0 249.4462l-99.874016 0z" fill-rule="nonzero"></path><path fill="#000000" fill-opacity="0.0" d="m-5.0603676 258.74277l0 -285.29132l101.32283 0l0 285.29132z" fill-rule="nonzero"></path><path fill="#ffffff" d="m50.535255 230.53966q0 3.96875 -1.328125 7.125q-1.328125 3.140625 -3.703125 5.203125q-2.375 2.046875 -5.625 3.140625q-3.265625 1.078125 -7.15625 1.078125q-5.25 0 -9.28125 -1.984375q-4.03125 -2.0 -6.34375 -5.9375q-2.328125 -3.9375 -2.328125 -9.328125q0 -5.96875 2.71875 -10.5l3.34375 1.546875q-2.5 4.359375 -2.5 8.90625q0 3.171875 1.09375 5.671875q1.078125 2.484375 3.015625 4.078125q1.9375 1.578125 4.546875 2.40625q2.609375 0.828125 5.734375 0.828125q6.609375 0 10.4375 -3.28125q3.828125 -3.296875 3.828125 -9.71875q0 -3.65625 -1.46875 -7.4375l-9.890625 0l0 8.1875l-3.546875 -0.140625l0 -11.84375l15.84375 0q1.40625 2.953125 2.015625 5.71875q0.59375 2.75 0.59375 6.28125zm-26.46875 -29.929688q0 -1.046875 0.140625 -1.921875l3.609375 0.140625q-0.1875 1.078125 -0.1875 1.875q0 3.28125 2.296875 5.34375q2.28125 2.046875 5.65625 2.046875l14.4375 0l0 3.90625q-23.671875 0.03125 -25.71875 0.03125l0 -3.265625l4.625 -0.375q-2.1875 -1.328125 -3.515625 -3.390625q-1.34375 -2.0625 -1.34375 -4.390625zm4.984375 -20.765625q-2.046875 1.71875 -2.046875 4.71875q0 3.0 2.125 4.90625q2.109375 1.890625 5.796875 2.21875l0 -13.578125q-3.828125 0 -5.875 1.734375zm21.515625 3.9375q0 5.609375 -3.5625 8.828125q-3.578125 3.21875 -9.765625 3.21875q-5.96875 0 -9.6875 -3.109375q-3.71875 -3.125 -3.78125 -8.203125q0 -4.78125 3.265625 -7.578125q3.265625 -2.8125 8.734375 -2.8125q0.28125 0 1.03125 0.015625q0.75 0.015625 1.078125 0.015625l0 17.640625q4.375 -0.0625 6.828125 -2.25q2.453125 -2.203125 2.453125 -5.90625q0 -4.078125 -2.15625 -8.171875l3.15625 -0.609375q2.40625 3.90625 2.40625 8.921875zm-3.90625 -25.078125q0 -1.984375 -0.703125 -3.484375q-0.703125 -1.5 -1.9375 -2.34375q-1.25 -0.84375 -2.765625 -1.25q-1.53125 -0.421875 -3.328125 -0.421875l-1.90625 0q-1.875 0 -3.453125 0.421875q-1.578125 0.421875 -2.828125 1.3125q-1.265625 0.875 -1.96875 2.34375q-0.703125 1.453125 -0.703125 3.40625q0 1.609375 0.609375 2.9375q0.609375 1.328125 1.609375 2.1875q1.0 0.84375 2.328125 1.453125q1.3125 0.59375 2.671875 0.859375q1.359375 0.25 2.75 0.25q1.359375 0 2.703125 -0.28125q1.328125 -0.28125 2.59375 -0.890625q1.265625 -0.609375 2.21875 -1.46875q0.9375 -0.875 1.53125 -2.171875q0.578125 -1.3125 0.578125 -2.859375zm15.125004 6.03125l-3.5312538 0.34375l0 -4.78125q0 -1.984375 -0.28125 -3.453125q-0.28125 -1.484375 -0.9375 -2.46875q-0.640625 -0.984375 -1.421875 -1.59375q-0.78125 -0.609375 -2.046875 -0.921875q-1.25 -0.328125 -2.484375 -0.421875q-1.234375 -0.109375 -3.015625 -0.109375l-2.265625 0q2.015625 1.40625 3.109375 3.265625q1.078125 1.84375 1.078125 4.703125q0 2.203125 -0.75 4.0625q-0.765625 1.859375 -2.03125 3.140625q-1.265625 1.28125 -2.921875 2.1875q-1.671875 0.890625 -3.453125 1.3125q-1.78125 0.40625 -3.59375 0.40625q-2.8125 0 -5.203125 -0.6875q-2.390625 -0.703125 -4.265625 -2.0625q-1.875 -1.359375 -2.9375 -3.5625q-1.0625 -2.21875 -1.0625 -5.078125q0 -2.53125 0.96875 -4.421875q0.96875 -1.890625 2.984375 -3.390625l-3.421875 0l0 -3.8125l23.859375 0q1.640625 0 2.875 0.078125q1.234375 0.078125 2.734375 0.40625q1.5 0.3125 2.578125 0.859375q1.078125 0.53125 2.171875 1.5q1.0937538 0.96875 1.7500038 2.328125q0.671875 1.34375 1.09375 3.34375q0.421875 1.984375 0.421875 4.484375l0 4.34375zm-11.765629 -34.5l-3.1875 0l-27.875 -18.84375l0 18.15625l-3.609375 0l0 -23.34375l3.03125 0l28.03125 18.96875l0 -19.125l3.609375 0.140625l0 24.046875zm-25.71875 -25.8125l0 -4.140625l21.40625 -8.109375l-21.40625 -7.21875l0 -4.15625q28.65625 10.40625 29.546875 10.765625q4.046875 1.609375 5.937504 3.90625q1.890625 2.296875 1.890625 6.046875q0 1.125 -0.1875 2.375l-3.3281288 0.234375q0.09375 -1.3125 0.09375 -1.96875q0 -2.65625 -0.984375 -4.015625q-0.96875 -1.375 -3.640625 -2.453125q-2.453125 -0.96875 -3.796875 -1.4375l-25.53125 10.171875zm25.71875 -27.234375l-25.71875 0l0 -3.28125l3.6875 -0.484375q-1.90625 -1.53125 -3.0625 -3.8125q-1.15625 -2.28125 -1.15625 -4.9375q0 -4.453125 2.5 -6.578125q2.484375 -2.140625 7.671875 -2.140625l16.078125 0l0 3.921875q-15.46875 0 -16.578125 0.015625q-3.28125 0.09375 -4.796875 1.328125q-1.53125 1.234375 -1.53125 4.109375q0 3.03125 1.453125 5.046875q1.453125 2.015625 3.78125 2.625q1.5625 0.234375 3.609375 0.234375l14.0625 0l0 3.953125zm-2.84375 -37.78125q0 -3.859375 -2.484375 -5.75q-2.484375 -1.890625 -7.09375 -1.890625q-5.203125 0 -7.84375 1.828125q-2.640625 1.8125 -2.640625 5.859375q0 1.8125 0.78125 3.203125q0.765625 1.375 2.15625 2.21875q1.375 0.84375 3.171875 1.28125q1.796875 0.421875 3.921875 0.421875q3.0 0 5.203125 -0.734375q2.203125 -0.734375 3.515625 -2.375q1.3125 -1.640625 1.3125 -4.0625zm-0.890625 -7.703125q1.953125 1.265625 3.109375 3.375q1.140625 2.109375 1.140625 4.703125q0 5.09375 -3.625 7.984375q-3.625 2.875 -9.859375 2.875q-5.953125 0 -9.609375 -2.921875q-3.671875 -2.9375 -3.671875 -7.859375q0 -2.5625 1.109375 -4.8125q1.109375 -2.265625 2.984375 -3.390625l-2.21875 0.0625l-11.328125 0l-0.234375 -3.859375l35.9375 0l0 3.328125l-3.734375 0.515625zm1.109375 -18.070312q0 -2.796875 -1.53125 -4.90625q-1.546875 -2.1250005 -4.140625 -2.7343755l-4.34375 0q0 0.109375 0.125 1.421875q0.109375 1.2968755 0.140625 1.6875005q0.4375 5.09375 1.65625 7.09375q1.21875 2.0 3.921875 2.0q2.0625 0 3.125 -1.21875q1.046875 -1.21875 1.046875 -3.34375zm2.625 -8.515625q-1.5 0.359375 -3.234375 0.6875q2.125 2.125 2.953125 4.0000005q0.828125 1.875 0.828125 4.40625q0 3.609375 -1.890625 5.8125q-1.890625 2.1875 -5.4375 2.1875q-3.9375 0 -5.828125 -2.984375q-1.90625 -3.0 -2.375 -8.625q-0.0625 -0.765625 -0.1875 -2.328125q-0.140625 -1.5625005 -0.203125 -2.3281255l-2.28125 0q-2.71875 0 -4.03125 1.265625q-1.3125 1.2656255 -1.3125 3.9843755q0 3.796875 1.875 7.65625q-0.28125 0.125 -1.625 0.625q-1.34375 0.484375 -1.390625 0.5q-0.96875 -1.703125 -1.53125 -4.0625q-0.578125 -2.359375 -0.578125 -4.796875q0 -4.7968755 2.09375 -6.9218755q2.09375 -2.125 7.140625 -2.125l17.015625 0l0 3.046875z" fill-rule="nonzero"></path><path fill="#ffffff" d="m67.31276 242.10216q0 1.546875 0.75 2.671875q0.75 1.125 2.03125 1.671875q1.265625 0.546875 2.921875 0.546875q1.234375 0 2.25 -0.296875q1.015625 -0.296875 1.78125 -0.890625q0.765625 -0.59375 1.1875 -1.546875q0.421875 -0.953125 0.421875 -2.1875q0 -1.59375 -0.828125 -3.28125l1.359375 -0.265625q0.875 1.375 0.875 3.734375q0 1.546875 -0.515625 2.78125q-0.515625 1.21875 -1.453125 2.03125q-0.9375 0.796875 -2.234375 1.21875q-1.3125 0.40625 -2.90625 0.40625q-1.546875 0 -2.84375 -0.453125q-1.296875 -0.453125 -2.234375 -1.28125q-0.9375 -0.828125 -1.453125 -2.0625q-0.515625 -1.25 -0.515625 -2.765625q0 -2.3125 1.015625 -3.90625l1.3125 0.640625q-0.921875 1.515625 -0.921875 3.234375zm7.484375 -6.563751q1.8125 0 2.90625 -0.796875q1.078125 -0.8125 1.078125 -2.359375q0 -1.515625 -1.078125 -2.28125q-1.09375 -0.78125 -2.921875 -0.78125q-1.875 0 -2.9375 0.765625q-1.078125 0.765625 -1.078125 2.328125q0 1.53125 1.09375 2.328125q1.09375 0.796875 2.9375 0.796875zm-0.03125 -7.828125q2.359375 0 3.84375 1.265625q1.46875 1.265625 1.46875 3.484375q0 2.140625 -1.484375 3.40625q-1.484375 1.265625 -3.8125 1.265625q-2.375 0 -3.84375 -1.265625q-1.46875 -1.265625 -1.46875 -3.484375q0 -2.1875 1.46875 -3.421875q1.46875 -1.25 3.828125 -1.25zm5.09375 -14.909256l-5.296875 0q-0.75 0 -1.25 0.03125q-0.5 0.03125 -1.015625 0.15625q-0.515625 0.109375 -0.8125 0.328125q-0.3125 0.203125 -0.5 0.578125q-0.1875 0.359375 -0.1875 0.875q0 1.03125 0.546875 1.75q0.546875 0.71875 1.53125 1.015625q0.671875 0.09375 1.4375 0.09375l5.546875 0l0 1.546875l-5.46875 0q-0.6875 0 -1.1875 0.046875q-0.5 0.046875 -0.984375 0.171875q-0.484375 0.125 -0.78125 0.34375q-0.296875 0.21875 -0.46875 0.59375q-0.171875 0.359375 -0.171875 0.859375q0 1.109375 0.5625 1.875q0.5625 0.75 1.5 1.0q0.71875 0.09375 1.546875 0.09375l5.453125 0l0 1.546875q-9.546875 0.015625 -10.171875 0.015625l0 -1.296875l1.453125 -0.203125q-0.703125 -0.453125 -1.1875 -1.296875q-0.484375 -0.859375 -0.484375 -1.953125q0 -0.5625 0.125 -1.03125q0.109375 -0.484375 0.28125 -0.796875q0.171875 -0.328125 0.421875 -0.578125q0.25 -0.25 0.484375 -0.390625q0.234375 -0.140625 0.5 -0.234375q-1.8125 -1.109375 -1.8125 -3.40625q0 -1.703125 0.96875 -2.484375q0.96875 -0.796875 2.875 -0.796875l6.546875 0l0 1.546875zm4.421875 -3.2292633l-14.59375 0l0 -1.359375l1.375 -0.15625q-1.59375 -1.328125 -1.59375 -3.203125q0 -1.390625 0.703125 -2.359375q0.6875 -0.96875 1.875 -1.421875q1.1875 -0.453125 2.78125 -0.453125q1.515625 0 2.703125 0.5q1.171875 0.5 1.859375 1.46875q0.6875 0.96875 0.6875 2.265625q0 0.984375 -0.4375 1.84375q-0.453125 0.859375 -1.171875 1.375q1.0 -0.046875 1.953125 -0.046875l3.75 0l0.109375 1.546875zm-5.515625 -4.5q0 -0.71875 -0.3125 -1.265625q-0.328125 -0.5625 -0.875 -0.90625q-0.5625 -0.34375 -1.265625 -0.515625q-0.71875 -0.171875 -1.546875 -0.171875q-1.75 0 -2.859375 0.734375q-1.125 0.71875 -1.125 2.140625q0 2.953125 3.8125 2.953125q2.078125 0 3.125 -0.6875q1.046875 -0.703125 1.046875 -2.28125zm-2.296875 -6.081131l-6.78125 0l0 -1.5625l6.796875 0q0.671875 0 1.140625 -0.1875q0.453125 -0.1875 0.71875 -0.546875q0.25 -0.359375 0.359375 -0.8125q0.109375 -0.453125 0.109375 -1.03125q0 -1.203125 -0.53125 -1.875q-0.53125 -0.671875 -1.796875 -0.671875l-6.796875 0l0 -1.5625l6.78125 0q0.78125 0 1.40625 0.21875q0.609375 0.21875 1.03125 0.59375q0.40625 0.375 0.671875 0.90625q0.265625 0.53125 0.390625 1.125q0.125 0.578125 0.125 1.265625q0 0.671875 -0.125 1.265625q-0.125 0.59375 -0.390625 1.125q-0.28125 0.53125 -0.6875 0.921875q-0.40625 0.375 -1.03125 0.609375q-0.625 0.21875 -1.390625 0.21875zm3.578125 -13.629822q0 1.5 -0.734375 2.140625q-0.734375 0.625 -2.359375 0.671875l-6.125 0l0 1.5l-1.015625 -0.0625l-0.125 -1.4375l-2.328125 -0.53125l-0.046875 -1.015625l2.375 0l0 -2.828125l1.140625 0l0 2.828125l5.84375 0q1.15625 0 1.640625 -0.34375q0.46875 -0.359375 0.46875 -1.21875q0 -0.296875 -0.15625 -1.328125l1.21875 -0.0625q0.203125 1.109375 0.203125 1.6875zm-1.234375 -6.155243q0 -1.109375 -0.59375 -1.9375q-0.609375 -0.84375 -1.640625 -1.09375l-1.71875 0q0 0.046875 0.046875 0.5625q0.046875 0.515625 0.046875 0.671875q0.1875 2.015625 0.671875 2.8125q0.484375 0.796875 1.546875 0.796875q0.8125 0 1.234375 -0.484375q0.40625 -0.484375 0.40625 -1.328125zm1.046875 -3.375q-0.59375 0.140625 -1.28125 0.28125q0.84375 0.84375 1.171875 1.59375q0.328125 0.734375 0.328125 1.734375q0 1.421875 -0.75 2.296875q-0.75 0.859375 -2.15625 0.859375q-1.546875 0 -2.296875 -1.171875q-0.765625 -1.1875 -0.9375 -3.421875q-0.03125 -0.296875 -0.078125 -0.90625q-0.0625 -0.625 -0.09375 -0.9375l-0.890625 0q-1.078125 0 -1.59375 0.5q-0.515625 0.5 -0.515625 1.578125q0 1.5 0.734375 3.03125q-0.109375 0.046875 -0.640625 0.25q-0.53125 0.1875 -0.5625 0.203125q-0.375 -0.6875 -0.59375 -1.609375q-0.234375 -0.9375 -0.234375 -1.90625q0 -1.890625 0.828125 -2.734375q0.828125 -0.84375 2.828125 -0.84375l6.734375 0l0 1.203125zm0.1875 -6.939728q0 1.5 -0.734375 2.140625q-0.734375 0.625 -2.359375 0.671875l-6.125 0l0 1.5l-1.015625 -0.0625l-0.125 -1.4375l-2.328125 -0.53125l-0.046875 -1.015625l2.375 0l0 -2.828125l1.140625 0l0 2.828125l5.84375 0q1.15625 0 1.640625 -0.34375q0.46875 -0.359375 0.46875 -1.21875q0 -0.296875 -0.15625 -1.328125l1.21875 -0.0625q0.203125 1.109375 0.203125 1.6875zm-10.359375 -5.045868l10.171875 0l0 1.5625l-10.171875 0l0 -1.5625zm-3.703125 0l1.828125 0l0 1.5625l-1.828125 0l0 -1.5625zm8.8125 -3.951828q1.8125 0 2.90625 -0.796875q1.078125 -0.8125 1.078125 -2.359375q0 -1.515625 -1.078125 -2.28125q-1.09375 -0.78125 -2.921875 -0.78125q-1.875 0 -2.9375 0.765625q-1.078125 0.765625 -1.078125 2.328125q0 1.53125 1.09375 2.328125q1.09375 0.796875 2.9375 0.796875zm-0.03125 -7.828125q2.359375 0 3.84375 1.265625q1.46875 1.265625 1.46875 3.484375q0 2.140625 -1.484375 3.40625q-1.484375 1.265625 -3.8125 1.265625q-2.375 0 -3.84375 -1.265625q-1.46875 -1.265625 -1.46875 -3.484375q0 -2.1875 1.46875 -3.421875q1.46875 -1.25 3.828125 -1.25zm5.09375 -1.987381l-10.171875 0l0 -1.296875l1.453125 -0.203125q-0.75 -0.59375 -1.203125 -1.5q-0.46875 -0.90625 -0.46875 -1.953125q0 -1.765625 0.984375 -2.609375q0.984375 -0.84375 3.046875 -0.84375l6.359375 0l0 1.546875q-6.125 0 -6.5625 0.015625q-1.296875 0.03125 -1.890625 0.53125q-0.609375 0.484375 -0.609375 1.625q0 1.1875 0.578125 1.984375q0.578125 0.796875 1.484375 1.046875q0.625 0.09375 1.4375 0.09375l5.5625 0l0 1.5625zm-1.046875 -13.723145q0 -1.109375 -0.59375 -1.9375q-0.609375 -0.84375 -1.640625 -1.09375l-1.71875 0q0 0.046875 0.046875 0.5625q0.046875 0.515625 0.046875 0.671875q0.1875 2.015625 0.671875 2.8125q0.484375 0.796875 1.546875 0.796875q0.8125 0 1.234375 -0.484375q0.40625 -0.484375 0.40625 -1.328125zm1.046875 -3.375q-0.59375 0.140625 -1.28125 0.28125q0.84375 0.84375 1.171875 1.59375q0.328125 0.734375 0.328125 1.734375q0 1.421875 -0.75 2.296875q-0.75 0.859375 -2.15625 0.859375q-1.546875 0 -2.296875 -1.171875q-0.765625 -1.1875 -0.9375 -3.421875q-0.03125 -0.296875 -0.078125 -0.90625q-0.0625 -0.625 -0.09375 -0.9375l-0.890625 0q-1.078125 0 -1.59375 0.5q-0.515625 0.5 -0.515625 1.578125q0 1.5 0.734375 3.03125q-0.109375 0.046875 -0.640625 0.25q-0.53125 0.1875 -0.5625 0.203125q-0.375 -0.6875 -0.59375 -1.609375q-0.234375 -0.9375 -0.234375 -1.90625q0 -1.890625 0.828125 -2.734375q0.828125 -0.84375 2.828125 -0.84375l6.734375 0l0 1.203125zm0.1875 -6.424103q0 1.484375 -0.796875 2.109375q-0.796875 0.609375 -2.78125 0.609375l-10.734375 0l-0.09375 -1.546875l10.21875 0q0.625 0 1.015625 0q0.375 -0.015625 0.75 -0.078125q0.359375 -0.0625 0.546875 -0.140625q0.1875 -0.09375 0.34375 -0.265625q0.140625 -0.1875 0.203125 -0.421875q0.046875 -0.25 0.046875 -0.625q0 -0.296875 -0.109375 -1.15625l1.234375 -0.09375q0.15625 0.953125 0.15625 1.609375zm-6.71875 -8.994507l5.21875 0l0 -2.875q0 -1.734375 -0.640625 -2.609375q-0.65625 -0.875 -2.015625 -0.875q-1.421875 0 -1.984375 0.953125q-0.578125 0.9375 -0.578125 2.921875l0 2.484375zm-1.296875 0l0 -2.9375q0 -1.4375 -0.5 -2.171875q-0.5 -0.734375 -1.78125 -0.734375q-1.28125 0 -1.765625 0.875q-0.484375 0.875 -0.484375 2.71875l0 2.25l4.53125 0zm-5.890625 1.609375l0 -3.9375q0 -2.640625 0.8125 -3.921875q0.796875 -1.28125 2.5625 -1.28125q0.265625 0 0.515625 0.046875q0.25 0.03125 0.65625 0.171875q0.390625 0.125 0.71875 0.359375q0.328125 0.21875 0.671875 0.671875q0.328125 0.453125 0.515625 1.0625q0.265625 -1.390625 1.171875 -2.09375q0.90625 -0.71875 2.1875 -0.71875q1.859375 0 2.890625 1.21875q1.015625 1.21875 1.015625 3.625l0 4.796875l-13.71875 0zm3.546875 -13.261688l10.171875 0l0 1.5625l-10.171875 0l0 -1.5625zm-3.703125 0l1.828125 0l0 1.5625l-1.828125 0l0 -1.5625zm8.8125 -3.951828q1.8125 0 2.90625 -0.796875q1.078125 -0.8125 1.078125 -2.359375q0 -1.515625 -1.078125 -2.28125q-1.09375 -0.78125 -2.921875 -0.78125q-1.875 0 -2.9375 0.765625q-1.078125 0.765625 -1.078125 2.328125q0 1.53125 1.09375 2.328125q1.09375 0.796875 2.9375 0.796875zm-0.03125 -7.828125q2.359375 0 3.84375 1.265625q1.46875 1.265625 1.46875 3.484375q0 2.140625 -1.484375 3.40625q-1.484375 1.265625 -3.8125 1.265625q-2.375 0 -3.84375 -1.265625q-1.46875 -1.265625 -1.46875 -3.484375q0 -2.1875 1.46875 -3.421875q1.46875 -1.25 3.828125 -1.25zm5.28125 -4.721756q0 1.484375 -0.796875 2.109375q-0.796875 0.609375 -2.78125 0.609375l-10.734375 0l-0.09375 -1.546875l10.21875 0q0.625 0 1.015625 0q0.375 -0.015625 0.75 -0.078125q0.359375 -0.0625 0.546875 -0.140625q0.1875 -0.09375 0.34375 -0.265625q0.140625 -0.1875 0.203125 -0.421875q0.046875 -0.25 0.046875 -0.625q0 -0.296875 -0.109375 -1.15625l1.234375 -0.09375q0.15625 0.953125 0.15625 1.609375zm-5.25 -3.5739288q1.8125 0 2.90625 -0.796875q1.078125 -0.8125 1.078125 -2.359375q0 -1.515625 -1.078125 -2.28125q-1.09375 -0.78125 -2.921875 -0.78125q-1.875 0 -2.9375 0.765625q-1.078125 0.765625 -1.078125 2.328125q0 1.53125 1.09375 2.328125q1.09375 0.796875 2.9375 0.796875zm-0.03125 -7.828125q2.359375 0 3.84375 1.265625q1.46875 1.265625 1.46875 3.484375q0 2.140625 -1.484375 3.40625q-1.484375 1.265625 -3.8125 1.265625q-2.375 0 -3.84375 -1.265625q-1.46875 -1.265625 -1.46875 -3.484375q0 -2.1875 1.46875 -3.421875q1.46875 -1.25 3.828125 -1.25zm3.765625 -5.940506q0 -0.78125 -0.28125 -1.375q-0.28125 -0.59375 -0.765625 -0.921875q-0.484375 -0.34375 -1.09375 -0.5q-0.609375 -0.171875 -1.3125 -0.171875l-0.75 0q-0.75 0 -1.375 0.171875q-0.625 0.171875 -1.125 0.515625q-0.5 0.34375 -0.765625 0.921875q-0.28125 0.578125 -0.28125 1.359375q0 0.640625 0.25 1.171875q0.234375 0.515625 0.625 0.859375q0.390625 0.328125 0.921875 0.5625q0.515625 0.234375 1.0625 0.34375q0.53125 0.09375 1.078125 0.09375q0.53125 0 1.0625 -0.109375q0.53125 -0.109375 1.03125 -0.34375q0.5 -0.25 0.875 -0.59375q0.375 -0.34375 0.609375 -0.859375q0.234375 -0.515625 0.234375 -1.125zm5.984375 2.390625l-1.40625 0.140625l0 -1.890625q0 -0.796875 -0.109375 -1.375q-0.109375 -0.59375 -0.359375 -0.984375q-0.25 -0.390625 -0.5625 -0.625q-0.3125 -0.25 -0.8125 -0.375q-0.5 -0.125 -0.984375 -0.15625q-0.484375 -0.046875 -1.1875 -0.046875l-0.90625 0q0.796875 0.5625 1.234375 1.296875q0.421875 0.734375 0.421875 1.859375q0 0.875 -0.296875 1.609375q-0.296875 0.734375 -0.796875 1.25q-0.5 0.5 -1.15625 0.859375q-0.671875 0.359375 -1.375 0.515625q-0.703125 0.15625 -1.421875 0.15625q-1.109375 0 -2.046875 -0.265625q-0.953125 -0.28125 -1.6875 -0.8125q-0.75 -0.53125 -1.171875 -1.40625q-0.421875 -0.890625 -0.421875 -2.015625q0 -1.0 0.390625 -1.75q0.375 -0.75 1.171875 -1.34375l-1.34375 0l0 -1.515625l9.4375 0q0.65625 0 1.140625 0.046875q0.484375 0.03125 1.078125 0.15625q0.59375 0.125 1.015625 0.34375q0.4375 0.203125 0.859375 0.59375q0.4375 0.375 0.703125 0.90625q0.265625 0.53125 0.421875 1.328125q0.171875 0.78125 0.171875 1.78125l0 1.71875zm-14.828125 -11.078598l10.171875 0l0 1.5625l-10.171875 0l0 -1.5625zm-3.703125 0l1.828125 0l0 1.5625l-1.828125 0l0 -1.5625zm14.09375 -5.858078q0 1.03125 -0.21875 1.921875q-0.234375 0.875 -0.578125 1.421875l-1.3125 -0.203125q0.828125 -1.546875 0.828125 -3.046875q0 -2.25 -1.59375 -2.328125q-0.6875 0 -1.078125 0.484375q-0.390625 0.484375 -0.875 1.890625l-0.265625 0.78125q-0.4375 1.328125 -1.09375 1.90625q-0.671875 0.5625 -1.640625 0.578125q-1.203125 0 -1.984375 -0.953125q-0.796875 -0.96875 -0.796875 -2.640625q0 -1.71875 0.671875 -3.140625l1.1875 0.453125q-0.59375 1.4375 -0.59375 2.6875q0 0.96875 0.390625 1.53125q0.375 0.546875 1.078125 0.546875q0.59375 0 0.90625 -0.390625q0.3125 -0.40625 0.71875 -1.609375q0.109375 -0.296875 0.265625 -0.765625q0.5 -1.53125 1.1875 -2.171875q0.671875 -0.640625 1.828125 -0.640625q1.40625 0.015625 2.1875 1.015625q0.78125 0.984375 0.78125 2.671875zm-0.03125 -8.900101q0 1.5 -0.734375 2.140625q-0.734375 0.625 -2.359375 0.671875l-6.125 0l0 1.5l-1.015625 -0.0625l-0.125 -1.4375l-2.328125 -0.53125l-0.046875 -1.015625l2.375 0l0 -2.828125l1.140625 0l0 2.828125l5.84375 0q1.15625 0 1.640625 -0.34375q0.46875 -0.359375 0.46875 -1.21875q0 -0.296875 -0.15625 -1.328125l1.21875 -0.0625q0.203125 1.109375 0.203125 1.6875z" fill-rule="nonzero"></path></g></svg>

